<?xml version="1.0" encoding="UTF-8" standalone="no"?>
<svg
   xmlns:dc="http://purl.org/dc/elements/1.1/"
   xmlns:cc="http://creativecommons.org/ns#"
   xmlns:rdf="http://www.w3.org/1999/02/22-rdf-syntax-ns#"
   xmlns:svg="http://www.w3.org/2000/svg"
   xmlns="http://www.w3.org/2000/svg"
   xmlns:sodipodi="http://sodipodi.sourceforge.net/DTD/sodipodi-0.dtd"
   xmlns:inkscape="http://www.inkscape.org/namespaces/inkscape"
   width="672.94049mm"
   height="442.70096mm"
   viewBox="0 0 672.94052 442.70096"
   version="1.1"
   id="svg8"
   inkscape:version="1.0.1 (3bc2e813f5, 2020-09-07)"
   sodipodi:docname="icon.svg">
  <defs
     id="defs2" />
  <sodipodi:namedview
     id="base"
     pagecolor="#ffffff"
     bordercolor="#666666"
     borderopacity="1.0"
     inkscape:pageopacity="0.0"
     inkscape:pageshadow="2"
     inkscape:zoom="0.0875"
     inkscape:cx="2990.1516"
     inkscape:cy="1354.4722"
     inkscape:document-units="mm"
     inkscape:current-layer="text835"
     inkscape:document-rotation="0"
     showgrid="false"
     inkscape:snap-global="true"
     inkscape:window-width="1267"
     inkscape:window-height="730"
     inkscape:window-x="12"
     inkscape:window-y="108"
     inkscape:window-maximized="0"
     showguides="true"
     inkscape:guide-bbox="true" />
  <metadata
     id="metadata5">
    <rdf:RDF>
      <cc:Work
         rdf:about="">
        <dc:format>image/svg+xml</dc:format>
        <dc:type
           rdf:resource="http://purl.org/dc/dcmitype/StillImage" />
        <dc:title></dc:title>
      </cc:Work>
    </rdf:RDF>
  </metadata>
  <g
     inkscape:label="Layer 1"
     inkscape:groupmode="layer"
     id="layer1"
     transform="translate(371.5415,9.7572839)">
    <g
       aria-label="RRi"
       id="text835"
       style="font-size:10.5833px;line-height:1.25;font-family:Poppins;-inkscape-font-specification:Poppins;letter-spacing:-0.015875px;stroke-width:0.264583">
      <path
         d="m -157.89387,432.94367 -87.13006,-167.11633 h -24.468 V 432.94367 H -371.5415 V -9.7572839 h 171.27619 q 49.53285,0 84.14614,18.2878518 35.210096,18.2884901 52.516716,50.4507071 17.306671,31.531187 17.306671,70.630535 0,44.14391 -23.871259,78.82834 -23.27441,34.68452 -69.226618,49.18928 l 96.678568,175.31424 z M -269.49193,189.52126 h 63.25881 q 28.04871,0 41.77468,-14.50475 14.32274,-14.50406 14.32274,-40.99052 0,-25.22504 -14.32274,-39.729737 -13.72597,-14.504123 -41.77468,-14.504123 h -63.25881 z"
         style="font-weight:bold;letter-spacing:-1.4949px;stroke-width:15.3369"
         id="path837" />
      <path
         d="M 186.22029,432.94367 99.090239,265.82734 H 74.622231 V 432.94367 H -27.427395 V -9.7572839 H 143.84879 q 49.53284,0 84.14618,18.2878518 35.21005,18.2884901 52.51672,50.4507071 17.30668,31.531187 17.30668,70.630535 0,44.14391 -23.87125,78.82834 -23.27449,34.68452 -69.22663,49.18928 l 96.67852,175.31424 z M 74.622231,189.52126 h 63.258749 q 28.04871,0 41.77468,-14.50475 14.32279,-14.50406 14.32279,-40.99052 0,-25.22504 -14.32279,-39.729737 Q 165.92969,79.79213 137.88098,79.79213 H 74.622231 Z"
         style="font-weight:bold;letter-spacing:-1.4949px;stroke-width:15.3369"
         id="path839" />
    </g>
  </g>
</svg>
